<svg width="112" height="111" viewBox="0 0 112 111" fill="none" xmlns="http://www.w3.org/2000/svg">
<path fill-rule="evenodd" clip-rule="evenodd" d="M59.493 19.7071C58.6109 18.1582 56.3892 18.1582 55.507 19.7071L14.3425 91.9991C13.4627 93.5442 14.5786 95.4546 16.3355 95.4546H98.6646C100.421 95.4546 101.537 93.5442 100.658 91.9991L59.493 19.7071ZM48.1048 15.4705C52.2581 8.17652 62.742 8.1765 66.8953 15.4705L108.06 87.7623C112.177 94.9922 106.979 104 98.6646 104H16.3355C8.02133 104 2.82341 94.9922 6.94019 87.7623L48.1048 15.4705Z" fill="#051937"/>
<path d="M62.5 83.0001C62.5 85.7615 60.2615 88 57.5 88C54.7385 88 52.5 85.7615 52.5 83.0001C52.5 80.2387 54.7385 78 57.5 78C60.2615 78 62.5 80.2387 62.5 83.0001Z" fill="#051937"/>
<path fill-rule="evenodd" clip-rule="evenodd" d="M57.5 40C60.2615 40 62.5 42.2622 62.5 45.0528V66.9475C62.5 69.738 60.2615 72 57.5 72C54.7385 72 52.5 69.738 52.5 66.9475V45.0528C52.5 42.2622 54.7385 40 57.5 40Z" fill="#051937"/>
</svg>
