<svg width="38" height="38" viewBox="0 0 38 38" fill="none" xmlns="http://www.w3.org/2000/svg">
<path d="M13.5714 4.03125C13.5714 1.80566 15.3951 0 17.6429 0H20.3571C22.6049 0 24.4286 1.80566 24.4286 4.03125V33.5938C24.4286 35.8193 22.6049 37.625 20.3571 37.625H17.6429C15.3951 37.625 13.5714 35.8193 13.5714 33.5938V4.03125ZM0 20.1562C0 17.9307 1.82366 16.125 4.07143 16.125H6.78571C9.03348 16.125 10.8571 17.9307 10.8571 20.1562V33.5938C10.8571 35.8193 9.03348 37.625 6.78571 37.625H4.07143C1.82366 37.625 0 35.8193 0 33.5938V20.1562ZM31.2143 5.375H33.9286C36.1763 5.375 38 7.18066 38 9.40625V33.5938C38 35.8193 36.1763 37.625 33.9286 37.625H31.2143C28.9665 37.625 27.1429 35.8193 27.1429 33.5938V9.40625C27.1429 7.18066 28.9665 5.375 31.2143 5.375Z" fill="white"/>
</svg>
