<svg width="88" height="88" viewBox="0 0 88 88" fill="none" xmlns="http://www.w3.org/2000/svg">
<path d="M43.9993 0.667969C20.1183 0.667969 0.666016 20.1203 0.666016 44.0013C0.666016 67.8823 20.1183 87.3346 43.9993 87.3346C67.8804 87.3346 87.3327 67.8823 87.3327 44.0013C87.3327 20.1203 67.8804 0.667969 43.9993 0.667969ZM43.9993 9.33464C63.1965 9.33464 78.666 24.8041 78.666 44.0013C78.666 63.1985 63.1965 78.668 43.9993 78.668C24.8022 78.668 9.33268 63.1985 9.33268 44.0013C9.33268 24.8041 24.8022 9.33464 43.9993 9.33464ZM29.7298 23.6042L23.6022 29.7318L37.8718 44.0013L23.6022 58.2708L29.7298 64.3984L43.9993 50.1289L58.2689 64.3984L64.3965 58.2708L50.127 44.0013L64.3965 29.7318L58.2689 23.6042L43.9993 37.8737L29.7298 23.6042Z" fill="#C10000"/>
</svg>
