<svg width="34" height="30" viewBox="0 0 34 30" fill="none" xmlns="http://www.w3.org/2000/svg">
<path d="M33.9911 14.9678C33.9911 16.0223 33.1054 16.8483 32.1017 16.8483H30.2123L30.2537 26.2332C30.2537 26.3913 30.2418 26.5495 30.2241 26.7077V27.6567C30.2241 28.9514 29.1673 30 27.8624 30H26.9177C26.8528 30 26.7878 30 26.7229 29.9941C26.6402 30 26.5576 30 26.4749 30L24.556 29.9941H23.139C21.8341 29.9941 20.7772 28.9455 20.7772 27.6509V26.2449V22.4956C20.7772 21.4587 19.9329 20.621 18.8879 20.621H15.1091C14.0641 20.621 13.2197 21.4587 13.2197 22.4956V26.2449V27.6509C13.2197 28.9455 12.1629 29.9941 10.858 29.9941H9.44098H7.55751C7.46895 29.9941 7.38038 29.9883 7.29182 29.9824C7.22096 29.9883 7.15011 29.9941 7.07926 29.9941H6.13457C4.82972 29.9941 3.77285 28.9455 3.77285 27.6509V21.0896C3.77285 21.0369 3.77285 20.9783 3.77876 20.9256V16.8424H1.88938C0.826603 16.8424 0 16.0223 0 14.9619C0 14.4347 0.177129 13.966 0.59043 13.5559L15.7232 0.468658C16.1365 0.0585823 16.6088 0 17.0221 0C17.4354 0 17.9078 0.117165 18.262 0.410076L33.3416 13.5618C33.814 13.9719 34.0501 14.4405 33.9911 14.9678Z" fill="white"/>
</svg>
