<svg width="20" height="23" viewBox="0 0 20 23" fill="none" xmlns="http://www.w3.org/2000/svg">
<g clip-path="url(#clip0_30_13693)">
<path d="M9.99988 0C10.7901 0 11.4284 0.642383 11.4284 1.4375V2.3C14.6874 2.96484 17.1427 5.8668 17.1427 9.34375V10.1883C17.1427 12.2996 17.9151 14.3391 19.3079 15.9203L19.6383 16.2932C20.0133 16.7154 20.1026 17.3219 19.8749 17.8385C19.6472 18.3551 19.1338 18.6875 18.5713 18.6875H1.42845C0.865948 18.6875 0.357019 18.3551 0.124876 17.8385C-0.107265 17.3219 -0.0135155 16.7154 0.361485 16.2932L0.691841 15.9203C2.0847 14.3391 2.85702 12.3041 2.85702 10.1883V9.34375C2.85702 5.8668 5.31238 2.96484 8.57131 2.3V1.4375C8.57131 0.642383 9.2097 0 9.99988 0ZM7.97756 22.16C7.44184 21.6209 7.14273 20.8887 7.14273 20.125H9.99988H12.857C12.857 20.8887 12.5579 21.6209 12.0222 22.16C11.4865 22.699 10.7588 23 9.99988 23C9.24095 23 8.51327 22.699 7.97756 22.16Z" fill="black"/>
<path d="M10 0C9.20974 0 8.57129 0.642383 8.57129 1.4375V2.3C5.31203 2.96484 2.85643 5.8668 2.85643 9.34375V10.4848C2.85643 12.5242 2.1644 14.5053 0.900877 16.0955L0.235632 16.9355C-0.023322 17.259 -0.0724341 17.7037 0.106155 18.0766C0.284744 18.4494 0.659782 18.6875 1.07054 18.6875H18.9295C19.3402 18.6875 19.7153 18.4494 19.8938 18.0766C20.0724 17.7037 20.0233 17.259 19.7644 16.9355L19.0991 16.1C17.8356 14.5053 17.1436 12.5242 17.1436 10.4848V9.34375C17.1436 5.8668 14.688 2.96484 11.4287 2.3V1.4375C11.4287 0.642383 10.7903 0 10 0ZM10 4.3125C12.7637 4.3125 15.0005 6.56309 15.0005 9.34375V10.4848C15.0005 12.6365 15.6211 14.7344 16.773 16.5312H3.227C4.3789 14.7344 4.9995 12.6365 4.9995 10.4848V9.34375C4.9995 6.56309 7.23633 4.3125 10 4.3125ZM12.8574 20.125H10H7.14257C7.14257 20.8887 7.44171 21.6209 7.97748 22.16C8.51324 22.699 9.241 23 10 23C10.759 23 11.4868 22.699 12.0225 22.16C12.5583 21.6209 12.8574 20.8887 12.8574 20.125Z" fill="black"/>
</g>
<defs>
<clipPath id="clip0_30_13693">
<rect width="20" height="23" fill="white" transform="matrix(-1 0 0 1 20 0)"/>
</clipPath>
</defs>
</svg>
