<svg width="48" height="38" viewBox="0 0 48 38" fill="none" xmlns="http://www.w3.org/2000/svg">
<path d="M0 4.03125C0 1.80566 1.79167 0 4 0H12C14.2083 0 16 1.80566 16 4.03125V5.375H32V4.03125C32 1.80566 33.7917 0 36 0H44C46.2083 0 48 1.80566 48 4.03125V12.0938C48 14.3193 46.2083 16.125 44 16.125H36C33.7917 16.125 32 14.3193 32 12.0938V10.75H16V12.0938C16 12.2365 15.9917 12.3793 15.975 12.5137L22.6667 21.5H30.6667C32.875 21.5 34.6667 23.3057 34.6667 25.5312V33.5938C34.6667 35.8193 32.875 37.625 30.6667 37.625H22.6667C20.4583 37.625 18.6667 35.8193 18.6667 33.5938V25.5312C18.6667 25.3885 18.675 25.2457 18.6917 25.1113L12 16.125H4C1.79167 16.125 0 14.3193 0 12.0938V4.03125Z" fill="white"/>
</svg>
