<svg width="104" height="89" viewBox="0 0 104 89" fill="none" xmlns="http://www.w3.org/2000/svg">
<path fill-rule="evenodd" clip-rule="evenodd" d="M85.5736 22.8442C85.5736 22.8442 81.918 13.066 72.2668 6.38167C49.782 -9.19914 19.4244 5.3316 15.9924 32.8496C15.9924 32.8496 8.54082 34.5828 3.79842 41.5793C-5.70198 55.5832 3.59562 74.4575 20.8544 75.2917V64.5706C18.556 64.4469 16.3408 63.6449 14.5572 62.2725C3.62163 53.8659 16.3928 36.5039 27.2868 45.4649C16.7152 9.41113 70.5248 -3.56997 77.5344 32.3869C77.6228 32.3815 77.7112 32.3711 77.7944 32.3549C77.8828 32.3442 77.966 32.3332 78.0544 32.3332C95.1728 32.3332 99.9932 57.4612 83.2544 63.5967V74.5274C110.523 67.8807 110.523 30.6857 85.5736 22.8442ZM68.0288 50.9443L75.3816 58.5544L60.6734 73.7771L45.9652 88.9999L45.96 88.9948L45.9496 88.9999L28.8052 71.2553L36.1632 63.6453L45.96 73.7848L68.0288 50.9443Z" fill="#709026"/>
</svg>
