<svg width="34" height="30" viewBox="0 0 34 30" fill="none" xmlns="http://www.w3.org/2000/svg">
<path d="M22.6667 28.125H25.5C26.1729 28.125 26.7927 27.7734 27.1292 27.1934L33.7403 15.9434C34.0826 15.3633 34.0826 14.6484 33.7462 14.0625C33.4097 13.4766 32.7899 13.125 32.1111 13.125H8.5C7.82708 13.125 7.20729 13.4766 6.87083 14.0566L2.83333 20.9238V5.625C2.83333 5.10938 3.25833 4.6875 3.77778 4.6875H10.7135C10.9615 4.6875 11.2035 4.78711 11.3806 4.96289L12.9448 6.51562C14.1844 7.74609 15.8667 8.4375 17.6198 8.4375H24.5556C25.075 8.4375 25.5 8.85938 25.5 9.375V11.25H28.3333V9.375C28.3333 7.30664 26.6392 5.625 24.5556 5.625H17.6198C16.6163 5.625 15.6542 5.23242 14.9458 4.5293L13.3816 2.9707C12.6733 2.26758 11.7111 1.875 10.7076 1.875H3.77778C1.6941 1.875 0 3.55664 0 5.625V24.375C0 26.4434 1.6941 28.125 3.77778 28.125H5.17674H22.6667Z" fill="white"/>
</svg>
